<svg width="145" height="66" viewBox="0 0 145 66" fill="none" xmlns="http://www.w3.org/2000/svg">
<path d="M136.439 36.7888C135.656 39.2748 134.873 41.5394 134.09 43.5827C133.306 45.626 132.472 47.4991 131.587 49.2018C130.701 50.9386 129.748 52.5222 128.726 53.9525C127.704 55.4169 126.58 56.7961 125.354 58.0902C123.788 59.7248 122.17 60.9678 120.502 61.8192C118.833 62.7046 117.164 63.1474 115.496 63.1474C114.644 63.1474 113.793 63.0452 112.941 62.8409C112.124 62.6706 111.358 62.4152 110.643 62.0746C109.893 61.7681 109.246 61.3935 108.702 60.9508C108.123 60.5421 107.714 60.0994 107.476 59.6227C107.476 59.214 107.714 58.8564 108.191 58.5499C108.599 58.9245 108.94 59.214 109.212 59.4183C109.485 59.6227 109.757 59.7929 110.03 59.9292C110.268 60.0654 110.541 60.1505 110.847 60.1846C111.119 60.2186 111.443 60.2357 111.818 60.2357C113.759 60.2357 115.649 59.6567 117.488 58.4988C119.361 57.375 121.115 55.7574 122.749 53.646C124.418 51.5686 125.933 49.0315 127.296 46.0347C128.658 43.0719 129.816 39.7515 130.769 36.0736C130.327 36.7547 129.782 37.589 129.135 38.5766C128.488 39.5642 127.772 40.5518 126.989 41.5394C126.206 42.493 125.389 43.3614 124.537 44.1446C123.72 44.9279 122.92 45.4558 122.136 45.7282C121.591 45.6941 121.012 45.575 120.399 45.3706C119.821 45.2003 119.259 44.9449 118.714 44.6044C118.203 44.2638 117.743 43.8552 117.335 43.3784C116.926 42.9016 116.653 42.3568 116.517 41.7438C116.517 40.7562 116.551 39.9729 116.619 39.394C116.687 38.781 116.807 38.1169 116.977 37.4017C117.283 36.1077 117.726 34.6433 118.305 33.0086C118.918 31.374 119.616 29.7734 120.399 28.2069C121.217 26.6063 122.102 25.1249 123.056 23.7627C124.043 22.3664 125.065 21.2767 126.121 20.4934C126.393 20.4934 126.734 20.5275 127.142 20.5956C127.551 20.6296 127.977 20.7148 128.419 20.851C128.862 20.9872 129.288 21.1575 129.697 21.3618C130.105 21.5321 130.463 21.7705 130.769 22.077C130.395 22.4175 129.577 23.5584 128.317 25.4995C127.057 27.4406 125.661 30.2332 124.129 33.877C123.958 34.2516 123.754 34.7965 123.516 35.5117C123.277 36.2268 123.039 36.9761 122.8 37.7593C122.596 38.5426 122.409 39.3088 122.238 40.058C122.068 40.8072 121.983 41.4032 121.983 41.8459C121.983 42.1184 122.017 42.3227 122.085 42.4589C122.187 42.5951 122.273 42.6973 122.341 42.7654C122.954 42.6632 123.771 42.1694 124.793 41.284C125.814 40.3645 126.972 38.9512 128.266 37.0442C129.084 35.8182 129.833 34.6092 130.514 33.4173C131.195 32.1913 131.859 30.9653 132.506 29.7394C133.187 28.5134 133.885 27.2533 134.6 25.9592C135.316 24.6652 136.082 23.337 136.899 21.9748C137.342 21.9748 137.819 22.0259 138.329 22.1281C138.84 22.2302 139.334 22.3664 139.811 22.5367C140.288 22.6729 140.696 22.8432 141.037 23.0475C141.411 23.2178 141.684 23.4051 141.854 23.6094C140.798 25.8571 139.811 28.0536 138.891 30.1991C137.972 32.3446 137.155 34.5411 136.439 36.7888Z" fill="#A94D30"/>
<path d="M97.447 43.6848C97.6173 42.6972 97.9068 41.4031 98.3154 39.8025C98.7581 38.1678 99.269 36.4481 99.8479 34.6431C100.427 32.8042 101.04 30.9652 101.687 29.1262C102.334 27.2872 102.964 25.6356 103.577 24.1712C104.02 23.1155 104.411 22.2982 104.752 21.7192C105.092 21.1063 105.467 20.5954 105.876 20.1868C106.352 20.2549 106.846 20.3741 107.357 20.5443C107.868 20.7146 108.362 20.9189 108.838 21.1573C109.315 21.3957 109.741 21.6511 110.115 21.9236C110.49 22.162 110.78 22.4003 110.984 22.6387C110.064 23.7285 109.247 24.9715 108.532 26.3678C107.851 27.764 107.153 29.5519 106.438 31.7314C108.277 30.0968 109.894 28.5303 111.29 27.0318C112.721 25.5334 114.049 23.8647 115.275 22.0257C115.479 21.8555 115.837 21.7703 116.348 21.7703C116.824 21.7703 117.284 21.8555 117.727 22.0257C118.17 22.162 118.476 22.3663 118.646 22.6387C118.033 24.2734 117.727 25.891 117.727 27.4916C117.727 28.99 117.948 30.1138 118.391 30.863C118.357 31.0674 118.118 31.459 117.676 32.0379C117.267 32.6169 116.807 33.1617 116.296 33.6726C115.377 33.1958 114.56 32.5487 113.845 31.7314C113.129 30.8801 112.602 29.9606 112.261 28.973C110.66 30.0968 109.298 31.2036 108.174 32.2933C107.051 33.349 106.08 34.541 105.263 35.8691C104.479 37.1632 103.798 38.6616 103.219 40.3644C102.674 42.0671 102.147 44.0934 101.636 46.4432C101.329 46.4092 100.955 46.29 100.512 46.0856C100.103 45.9154 99.6776 45.694 99.2349 45.4216C98.8263 45.1491 98.4516 44.8596 98.1111 44.5532C97.7705 44.2467 97.5492 43.9572 97.447 43.6848Z" fill="#A94D30"/>
<path d="M98.3514 23.5584C98.2151 25.6698 97.8405 27.4918 97.2275 29.0243C96.6146 30.5227 95.7291 31.8508 94.5713 33.0087C93.4474 34.1325 92.0682 35.1542 90.4336 36.0737C88.7989 36.9932 86.8918 37.8786 84.7123 38.73C84.7123 38.9343 84.6953 39.1556 84.6612 39.394C84.6612 39.5984 84.6612 39.8197 84.6612 40.0581C84.6612 40.5008 84.6953 40.9606 84.7634 41.4373C84.8315 41.9141 84.9507 42.3568 85.121 42.7655C85.2912 43.1741 85.5296 43.5147 85.8361 43.7871C86.1426 44.0255 86.5343 44.1447 87.011 44.1447C87.9305 44.1447 88.833 43.9404 89.7184 43.5317C90.6038 43.1231 91.4382 42.6293 92.2215 42.0503C93.0388 41.4373 93.788 40.7903 94.4691 40.1092C95.1842 39.394 95.8143 38.747 96.3591 38.1681C96.6997 38.4745 96.9892 38.764 97.2275 39.0365C95.6951 41.0798 94.0093 42.7825 92.1704 44.1447C90.3655 45.4729 88.6457 46.3242 87.011 46.6988C84.6612 46.4264 82.8223 45.575 81.4941 44.1447C80.2 42.6803 79.553 40.9265 79.553 38.8832C79.553 37.4869 79.7403 36.0737 80.1149 34.6434C80.5235 33.179 81.0684 31.7827 81.7495 30.4546C82.4647 29.0924 83.282 27.8153 84.2015 26.6234C85.155 25.4315 86.1597 24.3928 87.2154 23.5074C88.3051 22.6219 89.4119 21.9238 90.5357 21.413C91.6936 20.9021 92.8344 20.6467 93.9583 20.6467C95.5248 20.8511 96.9892 21.8216 98.3514 23.5584ZM94.8267 25.2442C93.9072 25.3804 92.9536 25.755 91.966 26.368C90.9784 26.981 90.0419 27.7983 89.1565 28.8199C88.3051 29.8416 87.5219 31.0335 86.8067 32.3957C86.0915 33.7579 85.5296 35.2223 85.121 36.7888C87.8454 35.4266 90.11 33.7579 91.915 31.7827C93.7199 29.7735 94.6904 27.594 94.8267 25.2442Z" fill="#A94D30"/>
<path d="M57.1169 39.9047C57.1169 38.6788 57.4234 36.976 58.0364 34.7965C58.6835 32.617 59.5178 30.2331 60.5395 27.6449C61.5611 25.0567 62.719 22.3834 64.0131 19.625C65.3072 16.8665 66.6013 14.2954 67.8954 11.9115C69.2235 9.52764 70.4836 7.46732 71.6755 5.73051C72.9015 3.9937 73.9401 2.8188 74.7915 2.20581C75.2683 2.23987 75.7791 2.44419 76.324 2.8188C76.9029 3.19341 77.4308 3.65315 77.9075 4.19803C78.3843 4.70885 78.776 5.25374 79.0825 5.83267C79.423 6.41161 79.5933 6.93946 79.5933 7.41623C78.0608 8.64221 76.4943 10.2258 74.8937 12.1669C73.3271 14.074 71.8287 16.1854 70.3984 18.5012C68.9681 20.7828 67.64 23.2178 66.414 25.806C65.222 28.3601 64.2174 30.8802 63.4001 33.3662C64.4899 31.4931 65.6307 29.7904 66.8226 28.2579C68.0146 26.7254 69.2065 25.4143 70.3984 24.3246C71.5903 23.2348 72.7482 22.4005 73.872 21.8215C75.0299 21.2085 76.1197 20.885 77.1413 20.8509C78.6397 21.9407 79.3889 23.388 79.3889 25.193C79.3889 26.2827 79.1676 27.3895 78.7249 28.5133C78.2822 29.6031 77.6862 30.6247 76.937 31.5783C76.2218 32.4978 75.3875 33.2981 74.4339 33.9792C73.5144 34.6262 72.5439 35.0519 71.5222 35.2562C71.8628 36.4482 72.2885 37.6571 72.7993 38.8831C73.3442 40.1091 73.9742 41.301 74.6894 42.4589C75.4386 43.6167 76.2729 44.6895 77.1924 45.6771C78.1459 46.6647 79.2187 47.499 80.4106 48.1801C80.2403 48.5207 79.9849 48.8612 79.6444 49.2018C79.3038 49.5423 78.8951 49.8318 78.4184 50.0702C77.9416 50.3426 77.4138 50.547 76.8348 50.6832C76.2899 50.8534 75.7451 50.9386 75.2002 50.9386C74.2807 50.9386 73.4123 50.4788 72.595 49.5594C71.8117 48.6399 71.0965 47.3117 70.4495 45.5749C69.9387 44.1787 69.4449 42.51 68.9681 40.5688C68.4913 38.6277 68.0656 36.6014 67.691 34.49C68.1678 34.1835 68.7638 33.7408 69.4789 33.1618C70.1941 32.5489 70.9433 31.8507 71.7266 31.0675C74.7234 28.1728 76.2218 25.6697 76.2218 23.5583C76.2218 23.2859 76.0345 23.1497 75.6599 23.1497C74.9788 23.1837 74.1785 23.5072 73.259 24.1202C72.3396 24.7332 71.352 25.5846 70.2962 26.6744C69.2746 27.7641 68.2189 29.0412 67.1291 30.5056C66.0734 31.9699 65.0518 33.5535 64.0642 35.2562C63.6555 35.9373 63.2809 36.7206 62.9404 37.606C62.5998 38.4915 62.2933 39.4109 62.0209 40.3645C61.7825 41.284 61.5952 42.2035 61.459 43.123C61.3227 44.0424 61.2546 44.8938 61.2546 45.6771C61.2546 46.1538 61.3057 46.5455 61.4079 46.852C60.3522 46.7498 59.7051 46.4774 59.4667 46.0347C59.1943 45.626 58.9559 45.2854 58.7516 45.013C58.5813 44.7746 58.394 44.5703 58.1897 44.4C57.8832 44.1616 57.6278 43.6508 57.4234 42.8675C57.2191 42.0843 57.1169 41.0967 57.1169 39.9047Z" fill="#A94D30"/>
<path d="M52.6868 24.0692C53.0273 24.0692 53.419 24.1374 53.8617 24.2736C54.3385 24.3757 54.7641 24.529 55.1388 24.7333C55.5134 24.9036 55.8199 25.0909 56.0582 25.2952C56.3307 25.4996 56.4669 25.6869 56.4669 25.8571C55.7858 27.2875 55.1558 28.7348 54.5768 30.1992C53.9979 31.6295 53.5041 33.0087 53.0954 34.3368C52.6868 35.665 52.3633 36.908 52.1249 38.0659C51.9205 39.2237 51.8184 40.2284 51.8184 41.0797C51.8184 42.0333 51.9205 42.8336 52.1249 43.4806C52.3292 44.0936 52.6698 44.5363 53.1465 44.8088C52.7379 45.0812 52.21 45.3026 51.563 45.4728C50.9159 45.6431 50.337 45.7283 49.8262 45.7283C47.9872 45.7283 47.0677 44.4682 47.0677 41.9482C47.0677 40.007 47.7148 37.3507 49.0088 33.9793C48.3277 35.5458 47.5445 37.0272 46.659 38.4235C45.7736 39.7857 44.8712 40.9946 43.9517 42.0503C43.0322 43.106 42.0957 43.9744 41.1421 44.6555C40.2226 45.3026 39.3713 45.6942 38.588 45.8304C37.328 45.7623 36.3063 45.1664 35.523 44.0425C34.7398 42.8847 34.3481 41.4203 34.3481 39.6494C34.3481 37.7424 34.7568 35.7331 35.5741 33.6217C36.3914 31.5103 37.4301 29.5521 38.6902 27.7472C39.9843 25.9423 41.3805 24.4439 42.8789 23.2519C44.3774 22.0259 45.8247 21.3789 47.221 21.3108C47.5615 21.413 47.9361 21.6173 48.3448 21.9238C48.7875 22.2303 49.1961 22.5879 49.5708 22.9965C49.9794 23.4052 50.32 23.8309 50.5924 24.2736C50.8648 24.6822 51.0181 25.0398 51.0521 25.3463C49.6899 25.5506 48.2767 26.2147 46.8123 27.3385C45.382 28.4624 44.0709 29.8246 42.8789 31.4251C41.7211 32.9917 40.7675 34.6774 40.0183 36.4823C39.2691 38.2872 38.8945 39.973 38.8945 41.5395C38.8945 42.1865 39.1329 42.5952 39.6096 42.7655C40.5972 42.5611 41.7381 41.7268 43.0322 40.2624C44.3263 38.764 45.8928 36.4653 47.7318 33.3663C48.0723 32.7533 48.4469 32.0722 48.8556 31.323C49.2983 30.5738 49.741 29.7905 50.1837 28.9732C50.6265 28.1559 51.0521 27.3385 51.4608 26.5212C51.9035 25.6698 52.3122 24.8525 52.6868 24.0692Z" fill="#A94D30"/>
<path d="M35.7911 16.5599C35.7911 18.6713 35.2122 20.5614 34.0543 22.2301C32.8964 23.8647 31.3129 25.2269 29.3036 26.3167C30.5977 27.2021 31.6194 28.2919 32.3686 29.586C33.1519 30.846 33.5435 32.2423 33.5435 33.7747C33.5435 35.6137 32.9816 37.4357 31.8578 39.2406C30.768 41.0114 29.3036 42.595 27.4647 43.9912C25.6257 45.3535 23.5313 46.4602 21.1815 47.3116C18.8317 48.163 16.4308 48.5887 13.9789 48.5887C11.3226 48.5887 8.98979 48.0779 6.98055 47.0562C5.00535 46.0686 3.45585 44.6553 2.33203 42.8164C2.67258 41.7947 3.1153 40.5347 3.66018 39.0362C4.23911 37.5038 4.86913 35.9032 5.55023 34.2345C6.23133 32.5317 6.91243 30.846 7.59353 29.1773C8.30869 27.5086 8.97276 26.0102 9.58576 24.682C10.8798 21.7874 12.0377 19.3865 13.0594 17.4794C14.081 15.5723 15.0175 14.0569 15.8689 12.933C13.9959 13.512 12.2931 14.1761 10.7607 14.9253C9.22818 15.6404 8.10436 16.3386 7.38921 17.0197C7.08271 16.8153 6.75919 16.5088 6.41864 16.1002C6.11214 15.6915 5.80565 15.2488 5.49915 14.772C5.22671 14.2612 4.98832 13.7504 4.78399 13.2395C4.61372 12.7287 4.51155 12.269 4.4775 11.8603C5.36293 11.2473 6.50377 10.6684 7.90003 10.1235C9.33034 9.54457 10.8798 9.05077 12.5485 8.64211C14.2172 8.23345 15.92 7.90993 17.6568 7.67154C19.4277 7.43316 21.1134 7.31396 22.714 7.31396C26.8006 7.31396 30.0018 8.13129 32.3175 9.76593C34.6332 11.4006 35.7911 13.6652 35.7911 16.5599ZM16.3287 28.7686C15.6816 28.4621 15.0856 28.0024 14.5408 27.3894C13.7575 29.1262 13.0083 30.829 12.2931 32.4977C11.612 34.1664 10.999 35.7159 10.4542 37.1462C9.90928 38.5765 9.46656 39.8195 9.12601 40.8752C8.78546 41.9309 8.59816 42.6972 8.5641 43.1739C9.04088 43.4464 9.60278 43.6507 10.2498 43.7869C10.9309 43.9231 11.7653 43.9912 12.7529 43.9912C15.0686 43.9912 17.2822 43.6677 19.3936 43.0207C21.505 42.3736 23.361 41.5052 24.9616 40.4155C26.5622 39.2917 27.8393 38.0146 28.7928 36.5843C29.7463 35.154 30.2231 33.6555 30.2231 32.089C30.2231 29.8414 29.2525 28.2238 27.3114 27.2362C24.6551 28.3259 21.6583 28.8708 18.3209 28.8708C17.8441 28.8708 17.4695 28.8708 17.1971 28.8708C16.9587 28.8708 16.6692 28.8368 16.3287 28.7686ZM26.2387 11.043C25.5235 11.043 24.7573 11.0941 23.94 11.1962C23.1567 11.2644 22.3223 11.3835 21.4369 11.5538C21.5731 11.69 21.6753 11.8433 21.7434 12.0136C21.8456 12.1498 21.9307 12.303 21.9988 12.4733C21.6923 12.882 21.3177 13.4779 20.875 14.2612C20.4323 15.0445 19.9385 15.9639 19.3936 17.0197C18.8487 18.0413 18.2698 19.1821 17.6568 20.4422C17.0779 21.7022 16.4819 22.9963 15.8689 24.3245C16.4478 24.1882 17.146 24.0861 17.9633 24.018C18.8147 23.9158 19.649 23.8647 20.4663 23.8647C20.9091 23.8647 21.3347 23.8817 21.7434 23.9158C22.1861 23.9499 22.6118 24.0009 23.0205 24.069C24.6551 23.7966 26.1195 23.405 27.4136 22.8941C28.7417 22.3493 29.8826 21.7363 30.8361 21.0552C31.7896 20.34 32.5218 19.5568 33.0327 18.7054C33.5435 17.854 33.7989 16.9515 33.7989 15.998C33.7989 14.3634 33.1519 13.1374 31.8578 12.3201C30.5637 11.4687 28.6906 11.043 26.2387 11.043Z" fill="#A94D30"/>
<path fill-rule="evenodd" clip-rule="evenodd" d="M115.902 33.4541C115.491 34.694 115.158 35.8469 114.906 36.91L115.902 33.4541ZM117.786 28.7321C117.879 29.627 118.08 30.3374 118.391 30.8632C118.357 31.0675 118.118 31.4592 117.676 32.0381C117.538 32.233 117.395 32.4241 117.246 32.6113C117.241 32.6171 117.236 32.6228 117.232 32.6285C116.942 32.9911 116.63 33.3392 116.297 33.6727C116.163 33.6035 116.031 33.5306 115.902 33.4541M117.786 28.7321C118.015 28.2366 118.251 27.7442 118.496 27.255L118.5 27.247L118.504 27.2389C119.362 25.5577 120.298 23.9911 121.312 22.5421L121.315 22.5379L121.318 22.5336C122.399 21.0057 123.571 19.735 124.853 18.7841L125.417 18.365H126.121C126.529 18.365 126.967 18.4116 127.41 18.4826C127.959 18.5353 128.505 18.6504 129.045 18.8167C129.577 18.9801 130.091 19.1836 130.587 19.4275C131.218 19.7006 131.785 20.083 132.274 20.572L133.853 22.1504L132.201 23.6519C132.201 23.6516 132.2 23.6526 132.198 23.6549C132.175 23.6814 131.995 23.8846 131.606 24.4276C131.224 24.9602 130.725 25.7001 130.103 26.6584C128.943 28.4454 127.603 31.1054 126.091 34.7022L126.079 34.7302L126.066 34.7578C125.942 35.0306 125.765 35.4926 125.535 36.1848C125.346 36.7517 125.156 37.342 124.966 37.9559C125.437 37.3657 125.949 36.6684 126.5 35.8561C127.288 34.6742 128.007 33.5129 128.66 32.3722C129.331 31.1632 129.986 29.9544 130.624 28.7459L130.634 28.7257L130.645 28.7057C131.326 27.4812 132.023 26.2225 132.738 24.9298C133.466 23.612 134.245 22.262 135.074 20.8798L135.694 19.8464H136.899C137.504 19.8464 138.122 19.916 138.747 20.041C139.334 20.1583 139.906 20.3143 140.463 20.5097C141.012 20.6711 141.54 20.8826 142.026 21.1604C142.521 21.3964 143.064 21.7363 143.489 22.2469L144.357 23.2878L143.781 24.5143C142.735 26.7414 141.757 28.9158 140.848 31.0376C139.956 33.1183 139.163 35.2495 138.469 37.4314C137.675 39.9499 136.878 42.2551 136.077 44.3446C135.27 46.4497 134.405 48.3946 133.479 50.1756C132.554 51.9899 131.55 53.6596 130.465 55.18C129.384 56.7275 128.196 58.1858 126.9 59.554L126.895 59.5585L126.891 59.5629C125.198 61.3301 123.398 62.7284 121.484 63.7075C119.554 64.729 117.55 65.2758 115.496 65.2758C114.483 65.2758 113.475 65.1553 112.476 64.918C111.533 64.7192 110.633 64.4219 109.782 64.0219C108.913 63.6612 108.117 63.2078 107.415 62.6477C106.664 62.1074 105.999 61.4295 105.572 60.5746L105.347 60.1251V59.6227C105.347 58.2278 106.213 57.2911 107.04 56.7595L108.42 55.8725L109.629 56.981C110.014 57.3337 110.296 57.5709 110.489 57.7156C110.672 57.8521 110.836 57.9526 110.982 58.0254L111.034 58.0519L111.059 58.0659C111.065 58.0669 111.072 58.0681 111.082 58.0692L111.097 58.0708L111.111 58.0726C111.271 58.0926 111.502 58.1072 111.818 58.1072C113.311 58.1072 114.813 57.6681 116.354 56.6977L116.373 56.6855L116.393 56.6737C117.995 55.7125 119.559 54.2905 121.066 52.343L121.078 52.328L121.09 52.3131C122.305 50.8003 123.453 48.9956 124.526 46.8846C123.988 47.2425 123.425 47.5334 122.836 47.7385L122.431 47.8792L122.004 47.8525C121.257 47.8058 120.507 47.6472 119.762 47.4016C118.999 47.1734 118.273 46.8389 117.586 46.4093L117.559 46.3927L117.533 46.3754C116.857 45.9243 116.251 45.3849 115.719 44.7636C115.082 44.0216 114.651 43.1595 114.439 42.2055L114.389 41.9774V41.7438C114.389 40.7248 114.423 39.8495 114.505 39.152C114.584 38.4404 114.72 37.6924 114.906 36.9112M116.619 39.394C116.551 39.9729 116.517 40.7562 116.517 41.7438C116.653 42.3568 116.926 42.9017 117.335 43.3784C117.743 43.8552 118.203 44.2639 118.714 44.6044C119.259 44.945 119.821 45.2004 120.4 45.3706C121.012 45.575 121.591 45.6942 122.136 45.7282C122.92 45.4558 123.72 44.9279 124.537 44.1447C124.557 44.1264 124.577 44.1082 124.597 44.0898C125.075 43.6462 125.543 43.1756 126.001 42.678C126.008 42.6694 126.016 42.6609 126.024 42.6524C126.263 42.3915 126.499 42.1231 126.733 41.8474C126.818 41.7457 126.904 41.6431 126.989 41.5394C127.772 40.5519 128.488 39.5643 129.135 38.5767C129.282 38.351 129.425 38.1333 129.562 37.9236C129.565 37.92 129.567 37.9164 129.569 37.9129C130.029 37.2095 130.429 36.5964 130.769 36.0736C130.613 36.6758 130.452 37.2683 130.284 37.8513C130.165 38.2689 130.042 38.6816 129.917 39.0893C129.517 40.3904 129.089 41.6414 128.632 42.8423C128.627 42.8541 128.623 42.8659 128.618 42.8778C128.611 42.8974 128.603 42.9169 128.596 42.9365C128.185 44.0094 127.752 45.0421 127.296 46.0347C125.933 49.0316 124.418 51.5687 122.749 53.646C121.115 55.7574 119.361 57.375 117.488 58.4989C115.649 59.6567 113.759 60.2357 111.818 60.2357C111.791 60.2357 111.764 60.2356 111.737 60.2354C111.663 60.2349 111.59 60.2337 111.52 60.2318C111.479 60.2307 111.438 60.2293 111.398 60.2277C111.196 60.2196 111.012 60.2052 110.847 60.1846C110.541 60.1505 110.268 60.0654 110.03 59.9292C109.915 59.8719 109.801 59.8086 109.686 59.7392C109.658 59.7223 109.63 59.7051 109.602 59.6874C109.6 59.6861 109.598 59.6849 109.596 59.6836C109.565 59.6637 109.533 59.6434 109.502 59.6227C109.405 59.5588 109.309 59.4907 109.212 59.4184C109.064 59.3068 108.895 59.17 108.706 59.0077C108.548 58.8727 108.376 58.7201 108.191 58.5499C107.863 58.7604 107.648 58.9949 107.546 59.2535C107.499 59.3715 107.476 59.4946 107.476 59.6227C107.654 59.9799 107.928 60.3181 108.298 60.6371C108.422 60.7438 108.556 60.8484 108.702 60.9508C108.867 61.0853 109.042 61.2134 109.226 61.3353C109.251 61.3519 109.277 61.3683 109.302 61.3847C109.697 61.6385 110.134 61.8644 110.612 62.0622C110.621 62.0656 110.629 62.069 110.637 62.0724C110.639 62.0732 110.641 62.0739 110.643 62.0746C110.853 62.175 111.068 62.2679 111.288 62.3534C111.814 62.5583 112.365 62.7208 112.941 62.8409C113.793 63.0452 114.644 63.1474 115.496 63.1474C117.164 63.1474 118.833 62.7047 120.502 61.8192C122.17 60.9679 123.788 59.7248 125.355 58.0902C126.58 56.7961 127.704 55.4169 128.726 53.9525C129.748 52.5222 130.701 50.9386 131.587 49.2018C132.472 47.4991 133.306 45.6261 134.09 43.5828C134.873 41.5394 135.656 39.2748 136.439 36.7888C137.155 34.5411 137.972 32.3446 138.891 30.1991C139.811 28.0537 140.798 25.8571 141.854 23.6095C141.684 23.4051 141.411 23.2178 141.037 23.0476C140.696 22.8432 140.288 22.673 139.811 22.5367C139.334 22.3665 138.84 22.2302 138.329 22.1281C137.819 22.0259 137.342 21.9748 136.899 21.9748C136.082 23.337 135.316 24.6652 134.6 25.9593C133.885 27.2534 133.187 28.5134 132.506 29.7394C131.859 30.9654 131.195 32.1913 130.514 33.4173C130.189 33.9866 129.848 34.5598 129.491 35.1369C129.476 35.1621 129.46 35.1873 129.444 35.2125C129.353 35.3607 129.26 35.5092 129.166 35.6579C128.895 36.0874 128.615 36.519 128.327 36.9527C128.307 36.9832 128.287 37.0137 128.266 37.0442C128.111 37.2723 127.959 37.4933 127.808 37.7073C127.036 38.8016 126.315 39.7111 125.646 40.4359C125.639 40.4432 125.632 40.4505 125.625 40.4578C125.338 40.7673 125.061 41.0427 124.793 41.284C124.554 41.4904 124.327 41.6755 124.112 41.8393C124.11 41.8407 124.108 41.842 124.106 41.8433C124.105 41.8442 124.104 41.8451 124.103 41.8459C123.819 42.0611 123.554 42.2393 123.308 42.3805C122.943 42.5905 122.621 42.7188 122.341 42.7654C122.273 42.6973 122.187 42.5952 122.085 42.4589C122.017 42.3227 121.983 42.1184 121.983 41.8459C121.983 41.6162 122.006 41.3451 122.052 41.0328C122.072 40.8969 122.096 40.7533 122.125 40.6018C122.157 40.4306 122.195 40.2493 122.238 40.0581C122.409 39.3088 122.596 38.5426 122.8 37.7593C123.039 36.9761 123.277 36.2269 123.516 35.5117C123.754 34.7966 123.958 34.2517 124.129 33.8771C125.661 30.2332 127.057 27.4407 128.317 25.4995C129.457 23.7432 130.235 22.642 130.65 22.196C130.694 22.1491 130.734 22.1094 130.769 22.077C130.463 21.7705 130.105 21.5321 129.697 21.3618C129.427 21.2273 129.151 21.1075 128.867 21.0024C128.72 20.948 128.571 20.8975 128.419 20.851C127.977 20.7148 127.551 20.6297 127.142 20.5956C126.734 20.5275 126.393 20.4934 126.121 20.4934C125.065 21.2767 124.043 22.3665 123.056 23.7627C122.102 25.1249 121.217 26.6063 120.4 28.2069C119.616 29.7734 118.918 31.374 118.305 33.0087C117.726 34.6433 117.283 36.1077 116.977 37.4018C116.807 38.1169 116.687 38.781 116.619 39.394Z" fill="white"/>
<path fill-rule="evenodd" clip-rule="evenodd" d="M95.9094 40.6668C95.6661 41.6892 95.4782 42.5769 95.3495 43.3233L95.2515 43.892L95.4541 44.4323C95.7258 45.157 96.2242 45.7187 96.6872 46.1354C97.1094 46.5154 97.5661 46.8673 98.0543 47.1928L98.0864 47.2142L98.1194 47.2345C98.6289 47.548 99.1415 47.818 99.6564 48.0351C100.192 48.2793 100.788 48.4908 101.401 48.5589L103.308 48.7708L103.716 46.8956C104.215 44.5999 104.724 42.6487 105.241 41.0318C105.777 39.459 106.393 38.1131 107.079 36.9782C107.798 35.8112 108.648 34.7684 109.632 33.8449L109.644 33.8333L109.656 33.8216C110.206 33.288 110.827 32.7426 111.52 32.1859C111.734 32.4995 111.966 32.8045 112.215 33.1007L112.229 33.1171L112.243 33.1332C113.124 34.1408 114.15 34.9573 115.317 35.5623L116.7 36.2795L117.493 35.4867C117.539 35.3308 117.587 35.173 117.637 35.0132C117.835 34.3762 118.057 33.708 118.305 33.0087C118.353 32.8821 118.401 32.7557 118.449 32.6295C118.454 32.6176 118.458 32.6057 118.463 32.5937C118.671 32.0534 118.888 31.5168 119.115 30.984C119.22 30.7369 119.328 30.4906 119.437 30.2451C119.614 29.8476 119.796 29.4522 119.983 29.0589C119.91 28.6884 119.855 28.1783 119.855 27.4918C119.855 26.1686 120.108 24.8037 120.639 23.3863L121.008 22.4022L120.451 21.5109C119.929 20.6758 119.127 20.2422 118.425 20.0143C117.757 19.7665 117.061 19.6421 116.348 19.6421C115.735 19.6421 114.721 19.7172 113.912 20.3909L113.675 20.5885L113.504 20.8453C113.32 21.1206 113.135 21.3916 112.947 21.6583L112.6 21.2538C112.23 20.8224 111.779 20.4651 111.314 20.1641C110.846 19.8287 110.336 19.5266 109.79 19.2538C109.223 18.9699 108.635 18.7272 108.03 18.5254C107.412 18.3194 106.794 18.1681 106.177 18.0799L105.123 17.9294L104.371 18.682C103.802 19.2507 103.318 19.9218 102.904 20.6632C102.497 21.3591 102.067 22.2684 101.614 23.3483L101.614 23.3496C100.982 24.8594 100.337 26.5505 99.6791 28.42C99.025 30.279 98.4051 32.1385 97.8196 33.9982C97.3409 35.4906 96.9071 36.9291 96.5183 38.3135C96.7908 38.5665 97.0272 38.8075 97.2275 39.0365C97.1287 39.1682 97.0293 39.2984 96.9293 39.4273C96.9247 39.4333 96.92 39.4393 96.9154 39.4452C96.5869 39.8676 96.2516 40.2748 95.9094 40.6668ZM104.752 21.7195C104.411 22.2984 104.02 23.1157 103.577 24.1714C102.964 25.6358 102.334 27.2875 101.687 29.1264C101.04 30.9654 100.427 32.8044 99.8479 34.6434C99.269 36.4483 98.7581 38.1681 98.3154 39.8027C97.9067 41.4033 97.6173 42.6974 97.447 43.685C97.5492 43.9574 97.7705 44.2469 98.1111 44.5534C98.4516 44.8599 98.8262 45.1493 99.2349 45.4218C99.3681 45.5038 99.4998 45.5811 99.6299 45.6538C99.9322 45.8228 100.226 45.9668 100.512 46.0859C100.75 46.1956 100.968 46.2807 101.166 46.3413C101.337 46.3936 101.494 46.4277 101.636 46.4434C102.147 44.0936 102.674 42.0674 103.219 40.3646C103.798 38.6619 104.479 37.1634 105.263 35.8693C105.382 35.6759 105.504 35.4853 105.63 35.2976C106.193 34.4553 106.822 33.6713 107.516 32.9454C107.728 32.7247 107.945 32.5094 108.168 32.2995C108.17 32.2975 108.172 32.2955 108.174 32.2936C108.325 32.1472 108.481 32.0005 108.64 31.8535C109.202 31.3358 109.817 30.8143 110.486 30.289C111.041 29.853 111.633 29.4144 112.261 28.9732C112.272 29.005 112.283 29.0368 112.294 29.0684C112.524 29.7083 112.833 30.3193 113.221 30.9014C113.41 31.185 113.618 31.4617 113.845 31.7317C114.56 32.549 115.377 33.196 116.296 33.6728C116.807 33.162 117.267 32.6171 117.676 32.0382C118.118 31.4592 118.357 31.0676 118.391 30.8632C117.948 30.114 117.727 28.9902 117.727 27.4918C117.727 25.8912 118.033 24.2736 118.646 22.639C118.476 22.3665 118.169 22.1622 117.727 22.026C117.284 21.8557 116.824 21.7706 116.348 21.7706C115.837 21.7706 115.479 21.8557 115.275 22.026C114.049 23.8649 112.721 25.5336 111.29 27.0321C111.271 27.0532 111.251 27.0744 111.231 27.0956C111.176 27.1541 111.121 27.2127 111.066 27.2714C110.699 27.6609 110.317 28.0549 109.92 28.4536C109.049 29.3281 108.107 30.2246 107.093 31.143C107.087 31.1486 107.081 31.1542 107.075 31.1598C106.866 31.3495 106.653 31.5401 106.438 31.7317C106.54 31.4192 106.642 31.1149 106.744 30.8185C106.748 30.8069 106.752 30.7953 106.756 30.7837C106.77 30.744 106.783 30.7044 106.797 30.6649C107.248 29.3623 107.693 28.2182 108.13 27.2325C108.265 26.9294 108.399 26.6412 108.532 26.368C109.247 24.9717 110.064 23.7287 110.984 22.639C110.796 22.42 110.537 22.201 110.205 21.9821C110.176 21.9627 110.146 21.9432 110.115 21.9238C109.855 21.7346 109.571 21.5537 109.261 21.3809C109.125 21.3049 108.984 21.2304 108.838 21.1576C108.362 20.9192 107.868 20.7148 107.357 20.5446C106.846 20.3743 106.352 20.2551 105.876 20.187C105.467 20.5957 105.092 21.1065 104.752 21.7195Z" fill="white"/>
<path fill-rule="evenodd" clip-rule="evenodd" d="M97.2276 29.024C97.8406 27.4916 98.2152 25.6696 98.3514 23.5582C96.9892 21.8214 95.5248 20.8508 93.9583 20.6465C92.8345 20.6465 91.6936 20.9019 90.5358 21.4127C89.4119 21.9236 88.3051 22.6217 87.2154 23.5071C86.1597 24.3926 85.1551 25.4312 84.2015 26.6232C83.282 27.8151 82.4647 29.0922 81.7495 30.4544C81.0684 31.7825 80.5236 33.1788 80.1149 34.6431C79.7403 36.0734 79.553 37.4867 79.553 38.883C79.553 40.9263 80.2 42.6801 81.4941 44.1445C82.8223 45.5748 84.6613 46.4262 87.0111 46.6986C87.6526 46.5516 88.3073 46.3311 88.9751 46.0372C89.4792 45.8154 89.9907 45.5516 90.5098 45.2461C91.0551 44.9251 91.6086 44.5579 92.1704 44.1445C92.5126 43.891 92.8496 43.6257 93.1812 43.3486C93.1841 43.3461 93.187 43.3437 93.1899 43.3413C93.9883 42.6735 94.7559 41.9373 95.4928 41.1326C96.0913 40.479 96.6696 39.7802 97.2276 39.0362C97.0969 38.8868 96.9508 38.7323 96.7893 38.5727C96.6564 38.4412 96.513 38.3063 96.3592 38.1678C96.3196 38.2098 96.2796 38.2522 96.2392 38.2949C95.7224 38.841 95.1324 39.4457 94.4691 40.109C93.788 40.7901 93.0388 41.4371 92.2215 42.0501C91.8763 42.3053 91.5211 42.5439 91.156 42.766C91.1545 42.7669 91.1529 42.7679 91.1514 42.7688C90.6896 43.0495 90.2119 43.3037 89.7184 43.5315C89.2485 43.7484 88.7738 43.9077 88.2943 44.0095C87.8703 44.0995 87.4426 44.1445 87.0111 44.1445C86.5343 44.1445 86.1427 44.0253 85.8362 43.7869C85.5297 43.5145 85.2913 43.1739 85.121 42.7653C84.9507 42.3566 84.8315 41.9139 84.7634 41.4371C84.6953 40.9603 84.6613 40.5006 84.6613 40.0579V39.3938C84.6953 39.1554 84.7123 38.9341 84.7123 38.7297C85.1039 38.5768 85.4866 38.4228 85.8605 38.2676C87.4039 37.6273 88.7976 36.9683 90.0414 36.2905C90.1738 36.2184 90.3046 36.146 90.4336 36.0734C92.0682 35.154 93.4475 34.1323 94.5713 33.0085C95.7291 31.8506 96.6146 30.5225 97.2276 29.024ZM87.8608 35.214C87.006 35.7779 86.0927 36.3027 85.121 36.7886C85.1724 36.5916 85.2262 36.3962 85.2824 36.2024C85.5251 35.3664 85.8129 34.5603 86.1458 33.7844C86.3493 33.3102 86.5696 32.8472 86.8067 32.3955C87.5219 31.0333 88.3051 29.8414 89.1565 28.8197C90.042 27.7981 90.9785 26.9807 91.9661 26.3678C92.1783 26.236 92.389 26.1153 92.5981 26.0056C93.3619 25.6048 94.1048 25.3509 94.8267 25.2439C94.7814 26.0245 94.6441 26.7863 94.4147 27.5292C93.9536 29.0229 93.1203 30.4407 91.915 31.7825C91.022 32.7597 90.0166 33.6618 88.8986 34.489C88.5628 34.7374 88.2169 34.9791 87.8608 35.214ZM86.7909 40.1858C88.5173 39.4653 90.0813 38.7137 91.4771 37.9285C93.2513 36.9305 94.7933 35.7965 96.0763 34.5135C97.4317 33.1581 98.4763 31.593 99.1975 29.8299L99.2007 29.8223L99.2038 29.8145C99.9199 28.0241 100.329 25.971 100.475 23.6952L100.528 22.8842L100.026 22.2447C98.4583 20.2456 96.5414 18.837 94.2336 18.5359L94.0965 18.5181H93.9583C92.5034 18.5181 91.071 18.8502 89.6766 19.4654L89.6658 19.4702L89.655 19.4751C88.345 20.0706 87.085 20.8706 85.8732 21.8552L85.8603 21.8657L85.8476 21.8763C84.6733 22.8613 83.5716 24.0034 82.5395 25.2935L82.5277 25.3082L82.5162 25.3231C81.5198 26.6148 80.6362 27.9961 79.865 29.465L79.8603 29.474L79.8556 29.4831C79.108 30.9411 78.5112 32.4713 78.0648 34.071L78.0602 34.0874L78.0559 34.1039C77.6379 35.6999 77.4246 37.2943 77.4246 38.883C77.4246 41.4196 78.2446 43.6816 79.8992 45.5539L79.9166 45.5736L79.9344 45.5928C81.6767 47.4691 84.0239 48.495 86.7659 48.8129L87.1296 48.8551L87.4865 48.7733C89.4833 48.3157 91.467 47.3046 93.4319 45.8588L93.4373 45.8548C95.032 44.6735 96.5064 43.2707 97.8637 41.6569C97.9906 41.1045 98.1376 40.5003 98.3048 39.8442C98.3084 39.8303 98.3119 39.8164 98.3155 39.8025C98.4996 39.1227 98.6955 38.4282 98.9031 37.7189L98.8294 37.6346C98.523 37.2845 98.1708 36.9348 97.783 36.5858L96.2358 35.1933L94.8092 36.7091C94.2824 37.2688 93.6679 37.9001 92.9641 38.6039C92.3599 39.2082 91.6894 39.7883 90.95 40.3432C90.2853 40.8338 89.5781 41.2521 88.8265 41.599C88.2404 41.8695 87.6754 42.0001 87.1168 42.0147C87.1065 41.994 87.0961 41.9715 87.0857 41.9466C86.9903 41.7176 86.9154 41.4505 86.8705 41.1361C86.8223 40.7993 86.7967 40.4829 86.7909 40.1858Z" fill="white"/>
<path fill-rule="evenodd" clip-rule="evenodd" d="M55.9917 34.2055L55.996 34.1907C56.6641 31.9404 57.5201 29.4971 58.5597 26.8634C59.5992 24.2302 60.775 21.516 62.0862 18.721C63.3958 15.9293 64.7086 13.3206 66.0248 10.896L66.0304 10.8858L66.036 10.8756C67.3875 8.44984 68.6822 6.3306 69.9206 4.52615L69.9285 4.51456L69.9366 4.50308C71.1887 2.72934 72.3948 1.30875 73.5479 0.478514L74.1738 0.027832L74.9432 0.0827848C75.9049 0.151477 76.7675 0.545242 77.5047 1.04769C78.2382 1.52558 78.8988 2.10316 79.4869 2.77081C80.0621 3.39111 80.5505 4.06576 80.9415 4.7954C81.3876 5.56489 81.7217 6.45324 81.7217 7.41624V8.43922L80.9229 9.07827C79.5321 10.191 78.0685 11.6624 76.537 13.5197C75.0373 15.3456 73.5941 17.3776 72.2093 19.6196L72.2056 19.6257L72.2018 19.6316C71.9741 19.995 71.7489 20.3625 71.5263 20.7342C71.9775 20.4372 72.4309 20.1702 72.8866 19.9349C74.249 19.2152 75.6516 18.771 77.0704 18.7237L77.8016 18.6993L78.3932 19.1296C80.4251 20.6073 81.5174 22.686 81.5174 25.193C81.5174 26.5772 81.2352 27.9481 80.7052 29.2935L80.7011 29.304L80.6968 29.3144C80.1776 30.5924 79.481 31.7847 78.6144 32.8885C77.7727 33.9699 76.7899 34.912 75.6711 35.7112L75.665 35.7155L75.6589 35.7198C75.1859 36.0526 74.6957 36.3424 74.189 36.5867C74.3626 37.0673 74.551 37.5521 74.7544 38.0413C75.2545 39.1637 75.8322 40.257 76.4884 41.3212C77.1647 42.3641 77.9142 43.3271 78.7369 44.2124C79.547 45.0489 80.4553 45.7542 81.4666 46.3321L83.2148 47.3311L82.3144 49.132C82.0188 49.7231 81.6109 50.2453 81.1494 50.7068C80.6446 51.2116 80.0619 51.6217 79.4229 51.9474C78.7904 52.3022 78.1112 52.5626 77.396 52.7374C76.6789 52.954 75.945 53.067 75.2002 53.067C73.4858 53.067 72.0819 52.1858 71.0042 50.9734L70.9893 50.9567L70.9747 50.9396C69.9684 49.7583 69.1474 48.1765 68.455 46.318L68.4528 46.3121L68.4506 46.3062C67.9057 44.8167 67.3906 43.0694 66.9011 41.0765C66.528 39.5574 66.1861 37.9902 65.8751 36.375C65.5456 36.9279 65.2273 37.5893 64.927 38.3701C64.613 39.1863 64.3288 40.0373 64.0747 40.9238C63.858 41.7632 63.6881 42.6002 63.5644 43.4349C63.4408 44.2696 63.3831 45.0154 63.3831 45.6771C63.3831 45.8416 63.392 45.9649 63.4035 46.0531C63.4148 46.1392 63.4266 46.1771 63.4271 46.1789L63.4271 46.1789L64.4628 49.286L61.2029 48.9705C60.5587 48.9082 59.8998 48.7832 59.3049 48.5327C58.7376 48.2938 58.0858 47.8778 57.6571 47.1573C57.4151 46.7959 57.2131 46.5091 57.0489 46.2901L57.034 46.2703L57.0196 46.2501C56.9501 46.1527 56.8885 46.0882 56.8389 46.0452C55.9625 45.3371 55.5776 44.2239 55.3639 43.4048C55.0978 42.3848 54.9885 41.2012 54.9885 39.9048C54.9885 38.384 55.3583 36.4574 55.9875 34.2202L55.9917 34.2055ZM58.1897 44.4C58.394 44.5703 58.5813 44.7746 58.7516 45.013C58.866 45.1656 58.9911 45.3394 59.1269 45.5347C59.159 45.581 59.1918 45.6284 59.2252 45.6771C59.3025 45.7898 59.383 45.909 59.4668 46.0347C59.7052 46.4774 60.3522 46.7498 61.4079 46.852C61.3057 46.5455 61.2547 46.1539 61.2547 45.6771C61.2547 45.4774 61.2591 45.2733 61.2679 45.0648C61.27 45.0156 61.2724 44.9661 61.2749 44.9165C61.275 44.9144 61.2752 44.9124 61.2753 44.9103C61.279 44.8378 61.2834 44.7649 61.2882 44.6914C61.321 44.1926 61.378 43.6698 61.459 43.123C61.5952 42.2035 61.7825 41.284 62.0209 40.3645C62.2933 39.411 62.5998 38.4915 62.9404 37.606C63.2809 36.7206 63.6555 35.9373 64.0642 35.2562C64.2731 34.8961 64.4834 34.5414 64.6953 34.1919C64.7061 34.1741 64.7169 34.1564 64.7277 34.1386C64.7846 34.045 64.8416 33.9517 64.8988 33.8589C65.3191 33.1757 65.7453 32.5132 66.1775 31.8716C66.4916 31.4053 66.8088 30.9499 67.1292 30.5056C67.4538 30.0693 67.7754 29.6497 68.094 29.2467C68.8449 28.297 69.579 27.4395 70.2963 26.6744C70.7042 26.2533 71.1019 25.8678 71.4895 25.5179C72.105 24.9623 72.6949 24.4964 73.2591 24.1202C73.5487 23.9272 73.8264 23.7628 74.0924 23.6272C74.0932 23.6268 74.0941 23.6263 74.0949 23.6259C74.1408 23.6025 74.1863 23.58 74.2315 23.5583C74.3816 23.4864 74.5278 23.4238 74.6701 23.3707C74.6763 23.3684 74.6824 23.3661 74.6886 23.3639C75.0356 23.2361 75.3594 23.1647 75.6599 23.1497C75.8025 23.1497 75.9179 23.1694 76.0062 23.2088C76.15 23.273 76.2218 23.3895 76.2218 23.5583C76.2218 25.6697 74.7234 28.1728 71.7266 31.0675C70.9433 31.8507 70.1941 32.5489 69.4789 33.1619C69.2833 33.3202 69.0967 33.4684 68.9189 33.6063C68.8965 33.6237 68.8742 33.641 68.852 33.6581C68.408 34.0006 68.021 34.2779 67.6911 34.49C68.0657 36.6014 68.4914 38.6277 68.9681 40.5688C69.4449 42.51 69.9387 44.1787 70.4495 45.5749C71.0966 47.3117 71.8117 48.6399 72.595 49.5594C73.4123 50.4788 74.2807 50.9386 75.2002 50.9386C75.7451 50.9386 76.29 50.8535 76.8348 50.6832C77.4138 50.547 77.9416 50.3426 78.4184 50.0702C78.5989 49.9799 78.7696 49.8824 78.9306 49.7775C79.1948 49.6053 79.4328 49.4134 79.6444 49.2018C79.8876 48.9585 80.0875 48.7153 80.2438 48.472C80.3064 48.3747 80.362 48.2774 80.4106 48.1801C79.2187 47.499 78.146 46.6647 77.1924 45.6771C76.2729 44.6895 75.4386 43.6168 74.6894 42.4589C73.9742 41.301 73.3442 40.1091 72.7993 38.8831C72.577 38.3494 72.3707 37.819 72.1806 37.2918C71.934 36.6079 71.7146 35.9293 71.5222 35.2562C71.9014 35.1804 72.2736 35.0741 72.6386 34.9373C73.2573 34.7054 73.8557 34.3861 74.434 33.9792C75.3875 33.2981 76.2218 32.4978 76.937 31.5783C77.6862 30.6248 78.2822 29.6031 78.7249 28.5133C79.1676 27.3895 79.389 26.2827 79.389 25.193C79.389 23.3881 78.6398 21.9407 77.1413 20.851C76.7353 20.8645 76.3185 20.9238 75.8909 21.0287C75.8143 21.0476 75.7373 21.0678 75.6599 21.0896C75.6262 21.0991 75.5923 21.1089 75.5584 21.1189C75.0133 21.2807 74.4512 21.5149 73.872 21.8215C73.3701 22.0801 72.8613 22.3897 72.3457 22.7502C71.707 23.1968 71.058 23.7216 70.3984 24.3246C69.9795 24.7076 69.5605 25.118 69.1416 25.5558C69.1355 25.5621 69.1294 25.5684 69.1234 25.5748C68.9599 25.7458 68.7965 25.9211 68.6331 26.1005C68.4776 26.2712 68.3221 26.4456 68.1666 26.6238C68.164 26.6267 68.1615 26.6296 68.159 26.6325C67.7135 27.1434 67.2681 27.6852 66.8227 28.2579C66.4959 28.678 66.173 29.1109 65.854 29.5566C65.8493 29.5631 65.8446 29.5696 65.84 29.5761C65.0001 30.7508 64.1868 32.0141 63.4001 33.3662C63.6698 32.5458 63.9599 31.7217 64.2704 30.8939C64.7065 29.7314 65.1828 28.5615 65.6994 27.3843C65.9296 26.8596 66.1678 26.3335 66.414 25.806C66.5584 25.5011 66.7043 25.1983 66.8515 24.8976C67.9543 22.6462 69.1366 20.5141 70.3984 18.5012C71.8287 16.1854 73.3272 14.074 74.8937 12.1669C76.4943 10.2258 78.0608 8.64222 79.5933 7.41624C79.5933 6.93947 79.423 6.41161 79.0825 5.83268C78.776 5.25374 78.3843 4.70886 77.9076 4.19804C77.4308 3.65316 76.9029 3.19341 76.324 2.81881C75.7791 2.4442 75.2683 2.23987 74.7915 2.20582C73.9402 2.81881 72.9015 3.99371 71.6755 5.73051C70.4836 7.46732 69.2235 9.52765 67.8954 11.9115C66.6013 14.2954 65.3072 16.8665 64.0131 19.625C62.719 22.3834 61.5612 25.0568 60.5395 27.6449C59.5178 30.2331 58.6835 32.617 58.0365 34.7965C57.4235 36.976 57.117 38.6788 57.117 39.9048C57.117 41.0967 57.2191 42.0843 57.4235 42.8675C57.6278 43.6508 57.8832 44.1616 58.1897 44.4Z" fill="white"/>
<path fill-rule="evenodd" clip-rule="evenodd" d="M32.2579 38.554C32.2325 38.9206 32.2197 39.2857 32.2197 39.6494C32.2197 41.732 32.6822 43.6417 33.7601 45.235L33.7684 45.2473L33.7769 45.2595C34.8981 46.8682 36.4966 47.8489 38.4731 47.9557L38.7145 47.9687L38.9527 47.9273C40.1462 47.7198 41.2899 47.1541 42.367 46.3961L42.3732 46.3918L42.3793 46.3874C43.3356 45.7043 44.2515 44.8783 45.1306 43.9241C45.2948 44.6866 45.5794 45.4093 46.038 46.0378C46.9735 47.3198 48.3651 47.8566 49.8262 47.8566C50.5661 47.8566 51.3321 47.7345 52.1047 47.5311C52.9025 47.3212 53.6663 47.0202 54.3272 46.5797L57.1927 44.6693L54.2163 42.9685C54.2057 42.953 54.1794 42.9095 54.149 42.8218C54.0335 42.4471 53.9468 41.8838 53.9468 41.0797C53.9468 40.3954 54.0291 39.5299 54.2157 38.4653C54.4378 37.3922 54.7413 36.2254 55.1298 34.9627C55.5186 33.6989 55.9913 32.3774 56.5498 30.9977L56.5531 30.9897L56.5562 30.9816C57.1173 29.5623 57.7281 28.1592 58.3886 26.7722L58.5954 26.338V25.8571C58.5954 25.1855 58.3252 24.6657 58.0861 24.337C57.8679 24.0369 57.6126 23.8063 57.3907 23.6346C56.9938 23.3043 56.5472 23.0412 56.0878 22.827C55.557 22.5464 54.9892 22.3462 54.3991 22.2125C53.8477 22.0494 53.2691 21.9407 52.6868 21.9407H51.4986C51.3733 21.7989 51.2431 21.66 51.1083 21.524C50.6472 21.0258 50.1408 20.582 49.5893 20.1967C49.0683 19.8098 48.4796 19.4661 47.8326 19.272L47.4824 19.167L47.1173 19.1848C45.1244 19.282 43.2579 20.1945 41.5427 21.5951C39.8725 22.9256 38.3481 24.5714 36.9604 26.5069L36.9526 26.5178L36.945 26.5288C35.5845 28.4775 34.4664 30.5873 33.5892 32.8533C33.5637 32.9192 33.5385 32.9852 33.5137 33.0511C33.5336 33.2889 33.5436 33.5301 33.5436 33.7749C33.5436 35.3809 33.115 36.974 32.2579 38.554ZM42.879 23.2519C41.3805 24.4438 39.9843 25.9422 38.6902 27.7471C37.4301 29.552 36.3915 31.5102 35.5741 33.6216C34.7568 35.733 34.3482 37.7423 34.3482 39.6494C34.3482 41.4202 34.7398 42.8846 35.5231 44.0425C36.3063 45.1663 37.328 45.7622 38.588 45.8304C39.3713 45.6941 40.2227 45.3025 41.1421 44.6555C41.3788 44.4864 41.6144 44.3058 41.8489 44.1137C42.5595 43.5318 43.2604 42.8439 43.9517 42.0502C44.1097 41.8688 44.2672 41.6829 44.4242 41.4925C44.4287 41.487 44.4331 41.4816 44.4376 41.4761C44.6249 41.2485 44.8115 41.0145 44.9974 40.7741C45.5578 40.0491 46.1117 39.2655 46.6591 38.4234C47.5228 37.0613 48.2893 35.6183 48.9586 34.0942C48.9641 34.0818 48.9695 34.0693 48.975 34.0569C48.9863 34.031 48.9976 34.0051 49.0089 33.9792C48.9987 34.0058 48.9885 34.0323 48.9784 34.0588C48.9735 34.0716 48.9686 34.0844 48.9637 34.0972C48.554 35.1719 48.2107 36.1732 47.9338 37.101C47.7416 37.745 47.5814 38.3537 47.4532 38.927C47.4524 38.9306 47.4516 38.9343 47.4507 38.938C47.2333 39.9125 47.1085 40.7847 47.0762 41.5546C47.0705 41.6889 47.0677 41.82 47.0677 41.9481C47.0677 44.4682 47.9872 45.7282 49.8262 45.7282C50.1525 45.7282 50.5067 45.6934 50.8886 45.6239C51.1045 45.5847 51.3293 45.5343 51.563 45.4728C52.21 45.3025 52.7379 45.0811 53.1466 44.8087C52.6698 44.5363 52.3292 44.0935 52.1249 43.4806C52.0895 43.3686 52.0572 43.252 52.028 43.1309C51.8883 42.5519 51.8184 41.8682 51.8184 41.0797C51.8184 40.2283 51.9206 39.2237 52.1249 38.0658C52.3633 36.9079 52.6868 35.6649 53.0955 34.3368C53.5041 33.0086 53.9979 31.6294 54.5769 30.1991C55.1558 28.7347 55.7858 27.2874 56.4669 25.8571C56.4669 25.6868 56.3307 25.4995 56.0583 25.2952C55.8199 25.0908 55.5134 24.9035 55.1388 24.7332C54.7642 24.5289 54.3385 24.3757 53.8617 24.2735C53.5072 24.1644 53.1854 24.099 52.8963 24.0773C52.8245 24.0719 52.7546 24.0692 52.6868 24.0692C52.5059 24.4474 52.3171 24.8335 52.1204 25.2275C51.9096 25.6496 51.6898 26.0808 51.4608 26.5211C51.4015 26.6398 51.3418 26.7584 51.2818 26.8771C51.1706 27.0967 51.0583 27.3164 50.9446 27.536C50.6969 28.015 50.4432 28.4941 50.1838 28.9731C49.741 29.7904 49.2983 30.5737 48.8556 31.3229C48.447 32.0721 48.0724 32.7532 47.7318 33.3662C47.7254 33.3771 47.7189 33.3879 47.7125 33.3987C47.7098 33.4032 47.7072 33.4076 47.7045 33.4121C47.6938 33.4302 47.6831 33.4482 47.6724 33.4662C47.0808 34.4608 46.5176 35.372 45.9827 36.1999C45.6991 36.6388 45.4236 37.0543 45.1559 37.4464C45.1522 37.4519 45.1484 37.4574 45.1446 37.463C44.3743 38.5906 43.6701 39.5237 43.0322 40.2624C42.8613 40.4558 42.693 40.6383 42.5274 40.8097C41.8472 41.5139 41.2122 42.0326 40.6222 42.3659C40.2685 42.5658 39.931 42.6989 39.6097 42.7654C39.1329 42.5951 38.8945 42.1865 38.8945 41.5394C38.8945 39.9729 39.2691 38.2872 40.0183 36.4822C40.7675 34.6773 41.7211 32.9916 42.879 31.4251C44.0709 29.8245 45.382 28.4623 46.8123 27.3385C47.7094 26.65 48.5872 26.1341 49.4459 25.7907C49.5516 25.7485 49.657 25.7088 49.7621 25.6718C49.7752 25.6672 49.7882 25.6626 49.8012 25.6581C50.2229 25.5121 50.6399 25.4081 51.0522 25.3462C51.0485 25.3135 51.0435 25.2801 51.0372 25.2462C50.984 24.9627 50.8357 24.6385 50.5924 24.2735C50.5253 24.1644 50.454 24.0564 50.3786 23.9493C50.2469 23.7624 50.1025 23.5785 49.9455 23.3978C49.8277 23.2623 49.7028 23.1285 49.5708 22.9964C49.1962 22.5878 48.7875 22.2302 48.3448 21.9237C47.9361 21.6172 47.5615 21.4129 47.221 21.3107C45.8247 21.3788 44.3774 22.0259 42.879 23.2519ZM47.3733 29.6403C46.3883 30.5092 45.4594 31.5241 44.5888 32.6926C43.5347 34.1192 42.667 35.6532 41.9841 37.2982C41.759 37.8406 41.5764 38.36 41.4332 38.8574M41.4332 38.8574C42.5992 37.5044 44.0813 35.3453 45.886 32.306C46.2194 31.7056 46.5864 31.0382 46.9871 30.3037L47.0046 30.2716L47.0232 30.2401C47.1398 30.0428 47.2565 29.8429 47.3733 29.6403" fill="white"/>
<path fill-rule="evenodd" clip-rule="evenodd" d="M35.7377 17.6515C35.7733 17.2945 35.7912 16.9306 35.7912 16.5599C35.7912 16.3699 35.7862 16.1826 35.7762 15.998C35.6766 14.1549 35.0795 12.5824 33.985 11.2807C33.5192 10.7268 32.9634 10.2219 32.3176 9.76595C30.0018 8.13131 26.8007 7.31399 22.7141 7.31399C21.1135 7.31399 19.4277 7.43318 17.6569 7.67157C15.9201 7.90995 14.2173 8.23347 12.5486 8.64214C10.8799 9.0508 9.33042 9.54459 7.90011 10.1235C6.50385 10.6684 5.36301 11.2473 4.47757 11.8603C4.51163 12.269 4.61379 12.7287 4.78407 13.2396C4.9884 13.7504 5.22679 14.2612 5.49923 14.772C5.64985 15.0063 5.80047 15.2324 5.95109 15.4503C6.00347 15.526 6.05585 15.6008 6.10824 15.6746C6.21173 15.8203 6.31522 15.9622 6.41871 16.1002C6.75926 16.5089 7.08279 16.8153 7.38928 17.0197C8.10444 16.3386 9.22825 15.6404 10.7607 14.9253C11.32 14.6519 11.9018 14.3898 12.5064 14.1391C13.5586 13.7028 14.6795 13.3007 15.869 12.9331C15.2771 13.7143 14.6441 14.6848 13.97 15.8446C13.6744 16.3532 13.3709 16.8981 13.0594 17.4794C12.0378 19.3865 10.8799 21.7874 9.58583 24.6821C8.97284 26.0102 8.30877 27.5086 7.59361 29.1773C6.91251 30.846 6.23141 32.5317 5.55031 34.2345C4.86921 35.9032 4.23919 37.5038 3.66025 39.0363C3.11537 40.5347 2.67266 41.7947 2.33211 42.8164C3.45592 44.6553 5.00543 46.0686 6.98062 47.0562C8.98987 48.0779 11.3226 48.5887 13.9789 48.5887C16.4309 48.5887 18.8318 48.163 21.1816 47.3116C23.5314 46.4603 25.6258 45.3535 27.4647 43.9913C29.3037 42.595 30.7681 41.0115 31.8578 39.2406C32.9817 37.4357 33.5436 35.6137 33.5436 33.7748C33.5436 32.2423 33.1519 30.846 32.3687 29.586C32.0716 29.0728 31.7316 28.5917 31.3488 28.1428C31.2447 28.0208 31.1375 27.9011 31.0271 27.7838C30.5196 27.2446 29.9451 26.7556 29.3037 26.3167C29.3985 26.2653 29.4923 26.2133 29.5852 26.1607C30.1711 25.8288 30.7194 25.4727 31.23 25.0925C32.3542 24.2553 33.2957 23.3012 34.0544 22.2301C35.009 20.8544 35.5701 19.3282 35.7377 17.6515ZM33.6329 17.2966C33.6964 17.0547 33.7417 16.8091 33.7688 16.5599C33.7889 16.3746 33.799 16.1873 33.799 15.998C33.799 14.6309 33.3464 13.5496 32.4412 12.7542C32.2641 12.5985 32.0696 12.4538 31.8578 12.3201C30.5637 11.4687 28.6907 11.043 26.2387 11.043C25.5236 11.043 24.7574 11.0941 23.94 11.1963C23.8782 11.2016 23.816 11.2073 23.7536 11.2133C23.7415 11.2145 23.7293 11.2157 23.7172 11.2169C23.3638 11.2515 23.0003 11.2963 22.6266 11.3513C22.2409 11.408 21.8443 11.4755 21.437 11.5538C21.5732 11.6901 21.6754 11.8433 21.7435 12.0136C21.8456 12.1498 21.9308 12.3031 21.9989 12.4733C21.9046 12.5991 21.8038 12.7426 21.6966 12.9038C21.4554 13.2665 21.1816 13.719 20.8751 14.2612C20.4324 15.0445 19.9386 15.964 19.3937 17.0197C18.8488 18.0413 18.2699 19.1822 17.6569 20.4422C17.4236 20.95 17.1875 21.4633 16.9487 21.9821C16.5948 22.7508 16.2349 23.5316 15.869 24.3245C16.4479 24.1883 17.1461 24.0861 17.9634 24.018C18.1011 24.0015 18.2384 23.9863 18.3753 23.9724C19.0843 23.9006 19.7813 23.8647 20.4664 23.8647C20.9091 23.8647 21.3348 23.8818 21.7435 23.9158C22.1862 23.9499 22.6119 24.001 23.0205 24.0691C24.6552 23.7966 26.1196 23.405 27.4136 22.8942C28.7418 22.3493 29.8826 21.7363 30.8362 21.0552C31.7897 20.34 32.5219 19.5568 33.0327 18.7054C33.3057 18.2504 33.5058 17.7808 33.6329 17.2966ZM29.5787 19.3377C30.3445 18.7602 30.8667 18.1785 31.2076 17.6103C31.5285 17.0755 31.6705 16.5495 31.6705 15.998C31.6705 15.034 31.3491 14.5162 30.7213 14.1197L30.7045 14.1091L30.688 14.0982C29.8893 13.5728 28.4972 13.1715 26.2387 13.1715C25.6239 13.1715 24.9466 13.2154 24.204 13.3083L24.1643 13.3132L24.1244 13.3167C24.0897 13.3197 24.0549 13.3229 24.0199 13.3261L23.7016 13.7504C23.4763 14.0508 23.154 14.5548 22.728 15.3085C22.302 16.0623 21.8212 16.957 21.2851 17.9959L21.2785 18.0086L21.2717 18.0213C20.7445 19.0098 20.181 20.1197 19.5811 21.3523C19.5184 21.4886 19.4556 21.6253 19.3926 21.7624C19.7525 21.745 20.1105 21.7363 20.4664 21.7363C20.9611 21.7363 21.4436 21.7552 21.9133 21.7942C22.2826 21.8227 22.645 21.862 23.0002 21.9125C24.3708 21.6656 25.5735 21.3311 26.619 20.9196C27.8117 20.4293 28.7909 19.8976 29.5787 19.3377ZM13.6106 29.4722C13.9152 28.7835 14.2252 28.0892 14.5408 27.3894C15.0685 27.983 15.644 28.4329 16.2675 28.7391C16.2879 28.7491 16.3083 28.759 16.3287 28.7687C16.6693 28.8368 16.9587 28.8708 17.1971 28.8708H18.321C21.5445 28.8708 24.4504 28.3625 27.0385 27.3458C27.1299 27.3099 27.2209 27.2734 27.3115 27.2362C27.6615 27.4143 27.98 27.6129 28.267 27.832C28.8367 28.267 29.282 28.7828 29.6028 29.3794C30.0164 30.1484 30.2232 31.0516 30.2232 32.089C30.2232 33.6556 29.7464 35.154 28.7929 36.5843C27.8393 38.0146 26.5623 39.2917 24.9617 40.4155C23.3611 41.5053 21.5051 42.3737 19.3937 43.0207C17.2823 43.6677 15.0687 43.9913 12.753 43.9913C11.7654 43.9913 10.931 43.9232 10.2499 43.7869C9.60286 43.6507 9.04095 43.4464 8.56418 43.174C8.59823 42.6972 8.78554 41.9309 9.12609 40.8752C9.46664 39.8195 9.90935 38.5765 10.4542 37.1462C10.9991 35.7159 11.6121 34.1664 12.2932 32.4977C12.7202 31.5014 13.1594 30.4929 13.6106 29.4722ZM15.402 30.6848C15.0109 31.5725 14.6292 32.4506 14.2568 33.3191C13.5838 34.9684 12.9794 36.4965 12.4432 37.9039C11.907 39.3117 11.4777 40.5183 11.1517 41.5287C11.1251 41.6113 11.0999 41.6908 11.076 41.7673C11.5219 41.8273 12.0766 41.8628 12.753 41.8628C14.8677 41.8628 16.8704 41.5678 18.77 40.9857C20.6997 40.3943 22.3526 39.6149 23.7512 38.6647C25.1593 37.6741 26.2357 36.5829 27.0219 35.4037C27.766 34.2875 28.0948 33.1947 28.0948 32.089C28.0948 31.2766 27.9219 30.7048 27.6701 30.2852C27.5285 30.0491 27.337 29.8196 27.0751 29.6029C24.4011 30.5439 21.4752 30.9993 18.321 30.9993H17.1971C16.771 30.9993 16.333 30.9401 15.9113 30.8558L15.6544 30.8044L15.4176 30.6922C15.4124 30.6898 15.4072 30.6873 15.402 30.6848ZM32.8017 26.5704C33.9617 25.6645 34.9631 24.6295 35.7912 23.4604L35.7972 23.452L35.8031 23.4435C37.2184 21.4038 37.9196 19.0868 37.9196 16.5599C37.9196 12.9911 36.4399 10.0705 33.545 8.02708C30.7433 6.04943 27.0541 5.18555 22.7141 5.18555C21.0083 5.18555 19.2272 5.31253 17.3729 5.56215L17.3675 5.5629C15.5592 5.81109 13.784 6.14826 12.0423 6.57479C10.2898 7.00397 8.64575 7.52631 7.11399 8.14554C5.62373 8.72788 4.32632 9.37631 3.26604 10.1104L2.25429 10.8108L2.35649 12.0371C2.40821 12.6577 2.55664 13.288 2.76485 13.9126L2.78463 13.972L2.80786 14.03C3.04249 14.6166 3.31409 15.1978 3.62119 15.7737L3.66197 15.8501L3.70883 15.923C4.04006 16.4383 4.37563 16.9235 4.71596 17.3773L4.74868 17.4209L4.7836 17.4628C5.20246 17.9654 5.67465 18.4347 6.20864 18.7906L7.62473 19.7347L8.85717 18.561C9.21888 18.2165 9.82453 17.7927 10.7442 17.3077C9.80598 19.117 8.77365 21.2841 7.64794 23.8017C7.02661 25.1483 6.3563 26.6611 5.63727 28.3389L5.62998 28.3559L5.623 28.373C4.9409 30.0442 4.25884 31.7322 3.57683 33.4372C2.89046 35.119 2.25449 36.7347 1.66916 38.2841L1.66448 38.2965L1.65996 38.3089C1.11131 39.8177 0.661625 41.0971 0.312891 42.1433L0 43.082L0.515947 43.9263C1.85179 46.1122 3.70236 47.7953 6.02183 48.9565C8.37747 50.153 11.0494 50.7171 13.9789 50.7171C16.683 50.7171 19.3289 50.2467 21.9066 49.3128C24.4325 48.3976 26.7126 47.1972 28.7316 45.7016L28.7418 45.6941L28.7518 45.6865C30.7757 44.1498 32.4259 42.3772 33.6677 40.3608C33.9206 39.9542 34.1511 39.5432 34.3582 39.1279C34.4238 37.4235 34.8095 35.6392 35.5154 33.7748C35.5347 33.7237 35.5543 33.6727 35.5741 33.6215C35.6042 33.5438 35.6346 33.4663 35.6652 33.389C35.6033 31.6299 35.1152 29.9837 34.1941 28.491C33.7919 27.8008 33.3269 27.1605 32.8017 26.5704Z" fill="white"/>
</svg>
